<svg width="52" height="52" viewBox="0 0 52 52" fill="none" xmlns="http://www.w3.org/2000/svg">
<g filter="url(#filter0_d)">
<rect x="4" width="44" height="44" rx="6" fill="white"/>
</g>
<path d="M26 17.6364C27.1573 17.6364 28.2672 18.0961 29.0856 18.9144C29.9039 19.7328 30.3636 20.8427 30.3636 22C30.3636 23.1573 29.9039 24.2672 29.0856 25.0856C28.2672 25.9039 27.1573 26.3636 26 26.3636C24.8427 26.3636 23.7328 25.9039 22.9144 25.0856C22.0961 24.2672 21.6364 23.1573 21.6364 22C21.6364 20.8427 22.0961 19.7328 22.9144 18.9144C23.7328 18.0961 24.8427 17.6364 26 17.6364ZM16.2364 23.0909H14V20.9091H16.2364C16.7273 16.36 20.36 12.7273 24.9091 12.2364V10H27.0909V12.2364C31.64 12.7273 35.2727 16.36 35.7636 20.9091H38V23.0909H35.7636C35.2727 27.64 31.64 31.2727 27.0909 31.7636V34H24.9091V31.7636C20.36 31.2727 16.7273 27.64 16.2364 23.0909ZM26 14.3636C23.9747 14.3636 22.0324 15.1682 20.6003 16.6003C19.1682 18.0324 18.3636 19.9747 18.3636 22C18.3636 24.0253 19.1682 25.9676 20.6003 27.3997C22.0324 28.8318 23.9747 29.6364 26 29.6364C28.0253 29.6364 29.9676 28.8318 31.3997 27.3997C32.8318 25.9676 33.6364 24.0253 33.6364 22C33.6364 19.9747 32.8318 18.0324 31.3997 16.6003C29.9676 15.1682 28.0253 14.3636 26 14.3636Z" fill="#007094"/>
<defs>
<filter id="filter0_d" x="0" y="0" width="52" height="52" filterUnits="userSpaceOnUse" color-interpolation-filters="sRGB">
<feFlood flood-opacity="0" result="BackgroundImageFix"/>
<feColorMatrix in="SourceAlpha" type="matrix" values="0 0 0 0 0 0 0 0 0 0 0 0 0 0 0 0 0 0 127 0"/>
<feOffset dy="4"/>
<feGaussianBlur stdDeviation="2"/>
<feColorMatrix type="matrix" values="0 0 0 0 0.235294 0 0 0 0 0.67451 0 0 0 0 0.815686 0 0 0 0.24 0"/>
<feBlend mode="normal" in2="BackgroundImageFix" result="effect1_dropShadow"/>
<feBlend mode="normal" in="SourceGraphic" in2="effect1_dropShadow" result="shape"/>
</filter>
</defs>
</svg>
